<?xml version="1.0" encoding="UTF-8" standalone="no"?>
<!-- Created with Inkscape (http://www.inkscape.org/) -->

<svg
   xmlns:dc="http://purl.org/dc/elements/1.1/"
   xmlns:cc="http://creativecommons.org/ns#"
   xmlns:rdf="http://www.w3.org/1999/02/22-rdf-syntax-ns#"
   xmlns:svg="http://www.w3.org/2000/svg"
   xmlns="http://www.w3.org/2000/svg"
   xmlns:sodipodi="http://sodipodi.sourceforge.net/DTD/sodipodi-0.dtd"
   xmlns:inkscape="http://www.inkscape.org/namespaces/inkscape"
   width="511.99997"
   height="511.99997"
   viewBox="0 0 135.46666 135.46666"
   version="1.1"
   id="svg8"
   inkscape:version="0.92.1 r15371"
   sodipodi:docname="cart.svg">
  <defs
     id="defs2" />
  <sodipodi:namedview
     id="base"
     pagecolor="#ffffff"
     bordercolor="#666666"
     borderopacity="1.0"
     inkscape:pageopacity="0.0"
     inkscape:pageshadow="2"
     inkscape:zoom="0.49497475"
     inkscape:cx="1377.7173"
     inkscape:cy="541.31355"
     inkscape:document-units="mm"
     inkscape:current-layer="layer1"
     showgrid="false"
     fit-margin-top="0"
     fit-margin-left="0"
     fit-margin-right="0"
     fit-margin-bottom="0"
     units="px"
     inkscape:window-width="1858"
     inkscape:window-height="1057"
     inkscape:window-x="54"
     inkscape:window-y="-8"
     inkscape:window-maximized="1" />
  <metadata
     id="metadata5">
    <rdf:RDF>
      <cc:Work
         rdf:about="">
        <dc:format>image/svg+xml</dc:format>
        <dc:type
           rdf:resource="http://purl.org/dc/dcmitype/StillImage" />
        <dc:title></dc:title>
      </cc:Work>
    </rdf:RDF>
  </metadata>
  <g
     inkscape:label="Layer 1"
     inkscape:groupmode="layer"
     id="layer1"
     transform="translate(0,-161.53334)">
    <g
       id="g3691"
       transform="translate(-39.6119,84.96905)">
      <path
         style="fill:#fefefe;stroke-width:0.26458332"
         d="M 39.6119,144.29762 V 76.564293 h 67.73333 67.73333 v 67.733327 67.73333 H 107.34523 39.6119 Z"
         id="path3707"
         inkscape:connector-curvature="0" />
      <path
         style="fill:#d0d0d0;stroke-width:0.26458332"
         d="m 72.023357,193.53901 c -4.510503,-1.17435 -6.837604,-5.99209 -4.817988,-9.97458 1.290317,-2.54438 3.418855,-3.86043 6.273196,-3.87866 6.137968,-0.0392 9.273198,7.26535 5.064119,11.7985 -1.475724,1.58935 -4.565951,2.56331 -6.519327,2.05474 z m 76.199993,0 c -4.5105,-1.17435 -6.8376,-5.99209 -4.81799,-9.97458 1.29032,-2.54438 3.41886,-3.86043 6.2732,-3.87866 3.93975,-0.0252 6.95699,2.98697 6.95699,6.94518 0,2.74719 -1.36695,4.98073 -3.81186,6.22846 -1.35947,0.69378 -3.39237,0.9941 -4.60034,0.6796 z M 65.034259,178.44829 c -0.676524,-0.42823 -0.102964,-5.308 1.001063,-8.51691 2.159993,-6.27812 7.463753,-11.8612 14.171827,-14.91817 1.234911,-0.56277 2.011148,-1.06648 1.944804,-1.26203 -0.06073,-0.17899 -3.434368,-12.67817 -7.496976,-27.77595 L 67.268413,98.524709 h -5.2104 c -6.235112,0 -6.041947,0.08882 -6.041947,-2.778125 0,-2.921687 -0.385792,-2.778865 7.493378,-2.774074 3.679076,0.0022 6.837365,0.115045 7.053878,0.251951 0.215628,0.136344 1.005965,2.009755 1.756305,4.163135 l 1.364255,3.915234 42.296818,0.13432 c 23.26325,0.0739 42.32658,0.16317 42.36296,0.19844 0.38222,0.37052 -3.65303,46.22246 -4.10788,46.67731 -0.17852,0.17852 -7.08308,1.27421 -15.86426,2.51752 -19.90129,2.81777 -38.807363,5.47272 -45.049206,6.32617 -7.568411,1.03485 -10.552324,2.02884 -14.702001,4.89751 -3.701983,2.55918 -7.195002,7.21895 -7.678647,10.24351 l -0.176567,1.10418 h 43.791501 43.79149 l 0.15954,0.59531 c 0.33146,1.23684 0.17932,3.85225 -0.24901,4.28058 -0.37483,0.37484 -4.96663,0.41538 -46.63281,0.41172 -26.771477,-0.002 -46.374611,-0.10379 -46.591551,-0.24111 z m 53.555761,-30.19594 c 16.58938,-2.33716 30.28411,-4.28797 30.43274,-4.33512 0.21943,-0.0696 4.1264,-35.05005 4.10209,-36.72742 -0.006,-0.43883 -2.03143,-0.46302 -38.76816,-0.46302 -21.318803,0 -38.761458,0.078 -38.761458,0.17332 0,0.30694 11.415944,45.44842 11.547328,45.66101 0.06972,0.11281 0.387361,0.1456 0.705866,0.0729 0.318503,-0.0727 14.152224,-2.04447 30.741594,-4.38163 z"
         id="path3705"
         inkscape:connector-curvature="0" />
      <path
         style="fill:#afafaf;stroke-width:0.26458332"
         d="m 71.266667,193.07833 c -2.487671,-0.76405 -4.667268,-3.77496 -4.667268,-6.44738 0,-3.52036 3.358798,-6.87916 6.879166,-6.87916 3.520368,0 6.879166,3.3588 6.879166,6.87916 0,2.7433 -2.179108,5.6906 -4.77802,6.46239 -1.702562,0.50561 -2.628461,0.50239 -4.313044,-0.015 z m 76.199993,0 c -2.48767,-0.76405 -4.66727,-3.77496 -4.66727,-6.44738 0,-3.52036 3.3588,-6.87916 6.87917,-6.87916 3.52037,0 6.87917,3.3588 6.87917,6.87916 0,2.7433 -2.17911,5.6906 -4.77802,6.46239 -1.70256,0.50561 -2.62846,0.50239 -4.31305,-0.015 z M 65.023981,178.04656 c -0.577467,-0.69581 0.541599,-6.73425 1.765076,-9.52428 1.669807,-3.80784 5.005774,-7.89006 8.522573,-10.42906 0.935424,-0.67534 2.899955,-1.83022 4.365625,-2.56641 1.610897,-0.80913 2.653564,-1.48931 2.636311,-1.71979 -0.02872,-0.38371 -14.185217,-53.0824 -14.690616,-54.686999 L 67.352112,98.260125 H 62.13388 c -3.705846,0 -5.310251,-0.09202 -5.535731,-0.3175 -0.421402,-0.421402 -0.421402,-3.97068 0,-4.392083 0.362283,-0.362283 13.335449,-0.460428 13.894599,-0.105116 0.17681,0.112355 0.811953,1.626726 1.41143,3.365269 0.599474,1.738543 1.252408,3.549795 1.450962,4.025005 l 0.361008,0.86401 H 115.766 c 33.31839,0 42.10634,0.0687 42.32192,0.33073 0.35964,0.43717 -3.57276,45.70606 -4.00776,46.13641 -0.25598,0.25324 -26.35208,4.04617 -53.4818,7.77328 -11.361853,1.56091 -13.788526,1.993 -16.303015,2.90293 -4.571614,1.65434 -8.97219,5.01333 -11.375596,8.68306 -1.27495,1.9467 -2.351601,4.39907 -2.351601,5.35643 0,0.51383 0.454213,0.51924 43.603332,0.51924 33.56092,0 43.67646,0.0731 43.92083,0.3175 0.4214,0.4214 0.4214,3.97068 0,4.39208 -0.24452,0.24452 -10.94067,0.3175 -46.53427,0.3175 -39.976588,0 -46.259605,-0.0516 -46.534059,-0.38231 z M 118.65633,148.4402 c 16.77137,-2.37562 30.57006,-4.39596 30.66376,-4.48966 0.14329,-0.14329 4.03031,-35.38559 4.05449,-36.76073 0.008,-0.43891 -2.02437,-0.46302 -39.03572,-0.46302 -37.059392,0 -39.037049,0.0235 -38.909623,0.46302 0.07384,0.25466 2.644698,10.46427 5.713024,22.68802 3.068327,12.22375 5.631576,22.37383 5.696111,22.55573 0.06453,0.1819 0.388961,0.32965 0.720952,0.32833 0.331989,-0.001 14.325646,-1.94608 31.097006,-4.32169 z"
         id="path3703"
         inkscape:connector-curvature="0" />
      <path
         style="fill:#8f8f8f;stroke-width:0.26458332"
         d="m 70.644796,192.69371 c -1.296136,-0.64158 -2.878212,-2.29803 -3.409649,-3.56994 -0.560964,-1.34257 -0.475252,-3.96281 0.173461,-5.30288 0.629312,-1.29998 2.293017,-2.89681 3.577138,-3.43335 1.14238,-0.47732 3.843258,-0.47732 4.985638,0 1.284121,0.53654 2.947826,2.13337 3.577138,3.43335 0.648713,1.34007 0.734425,3.96031 0.173461,5.30288 -0.536541,1.28412 -2.133375,2.94783 -3.433358,3.57714 -1.541253,0.74611 -4.12864,0.74281 -5.643829,-0.007 z m 76.199994,0 c -1.29613,-0.64158 -2.87821,-2.29803 -3.40965,-3.56994 -0.56096,-1.34257 -0.47525,-3.96281 0.17346,-5.30288 0.62932,-1.29998 2.29302,-2.89681 3.57714,-3.43335 1.14238,-0.47732 3.84326,-0.47732 4.98564,0 1.28412,0.53654 2.94783,2.13337 3.57714,3.43335 0.64871,1.34007 0.73442,3.96031 0.17346,5.30288 -0.53654,1.28412 -2.13338,2.94783 -3.43336,3.57714 -1.54125,0.74611 -4.12864,0.74281 -5.64383,-0.007 z M 65.11042,176.11377 c 0.76119,-8.9394 5.810482,-16.08298 14.387416,-20.35488 1.637109,-0.81539 2.976562,-1.61681 2.976562,-1.78094 0,-0.67172 -14.844889,-55.300735 -15.116283,-55.627747 -0.228002,-0.274726 -1.479703,-0.354661 -5.553613,-0.354661 h -5.25927 v -2.25328 -2.25328 l 7.063625,0.07047 7.063625,0.07047 1.35759,3.925045 c 0.746675,2.158775 1.526873,4.032183 1.733772,4.163133 0.218736,0.13844 17.95572,0.23978 42.378786,0.24215 l 42.0026,0.004 -0.004,0.72761 c -0.0141,2.36018 -3.95114,45.13786 -4.17485,45.36157 -0.25019,0.25019 -22.9149,3.54831 -53.36768,7.76593 -6.839476,0.94725 -13.328381,1.96318 -14.419788,2.25761 -5.643969,1.52262 -11.0624,5.48719 -13.868677,10.14747 -1.032695,1.71496 -2.136087,4.75328 -1.877901,5.17103 0.113078,0.18298 14.368771,0.27085 43.940306,0.27085 h 43.77293 v 2.24896 2.24897 H 111.54052 64.935817 Z M 118.9869,148.5213 c 16.66213,-2.35007 30.37163,-4.35108 30.46555,-4.4467 0.21032,-0.21413 4.17002,-37.13759 4.01229,-37.41395 -0.0623,-0.10914 -17.66793,-0.19844 -39.12367,-0.19844 -36.269233,0 -39.010422,0.0311 -39.010422,0.44199 0,0.51523 11.336742,45.58076 11.555328,45.93444 0.08082,0.13076 0.520258,0.17425 0.976534,0.0966 0.456277,-0.0776 14.46225,-2.06391 31.12439,-4.41397 z"
         id="path3701"
         inkscape:connector-curvature="0" />
      <path
         style="fill:#707070;stroke-width:0.26458332"
         d="m 71.119945,192.79122 c -2.334043,-0.82439 -4.255963,-3.60627 -4.255963,-6.16027 0,-3.48832 3.126256,-6.61458 6.614583,-6.61458 1.598059,0 3.449084,0.78933 4.637172,1.97741 4.978283,4.97829 -0.319789,13.15543 -6.995792,10.79744 z m 76.199995,0 c -2.33404,-0.82439 -4.25596,-3.60627 -4.25596,-6.16027 0,-3.48832 3.12625,-6.61458 6.61458,-6.61458 1.59806,0 3.44909,0.78933 4.63717,1.97741 4.97829,4.97829 -0.31979,13.15543 -6.99579,10.79744 z m -82.172837,-14.8868 c -0.206725,-0.33449 0.303842,-4.15726 0.83098,-6.2218 1.002816,-3.92753 3.3342,-7.83558 6.483186,-10.86763 2.401186,-2.31203 4.576981,-3.7964 7.808732,-5.3273 1.922251,-0.91058 2.461212,-1.28051 2.361528,-1.6209 -0.07104,-0.24257 -3.410445,-12.64495 -7.420904,-27.56083 C 71.200169,111.39007 67.804277,98.920753 67.664198,98.596359 67.414302,98.01765 67.308532,98.005202 62.043517,97.934901 l -5.365993,-0.07165 v -2.116666 -2.116667 l 6.776977,-0.07054 c 5.225377,-0.05439 6.835525,0.0062 7.032701,0.264583 0.140647,0.184317 0.649777,1.466216 1.1314,2.848664 0.481624,1.382448 1.105699,3.13862 1.386832,3.902605 l 0.511152,1.38906 H 115.683 c 23.19153,0 42.22555,0.0957 42.29783,0.21264 0.17797,0.28795 -3.80284,45.64705 -4.02523,45.86525 -0.14953,0.14672 -31.96062,4.70639 -58.781203,8.42545 -6.233374,0.86435 -8.325376,1.25956 -10.388197,1.96246 -3.752128,1.27853 -6.47655,2.99862 -9.465071,5.97587 -2.063216,2.05543 -2.726135,2.92343 -3.63727,4.7625 -0.612814,1.23692 -1.189238,2.75462 -1.280943,3.37265 l -0.166732,1.1237 43.888376,0.0669 43.88838,0.0669 v 2.11667 2.11667 l -46.35216,0.0669 c -30.306604,0.0437 -46.408069,-0.0236 -46.513677,-0.19446 z m 28.369783,-25.66321 c 20.296374,-2.90985 54.288834,-7.679 54.732674,-7.679 1.43553,0 1.32737,0.60067 3.43111,-19.05575 1.08165,-10.10649 1.96664,-18.52593 1.96664,-18.70985 0,-0.26797 -7.77567,-0.3344 -39.14271,-0.3344 -21.528499,0 -39.202648,0.097 -39.27589,0.21547 -0.07324,0.11851 2.478293,10.56624 5.670076,23.21718 3.191782,12.65095 5.804524,23.03149 5.806093,23.06787 0.008,0.18589 1.825529,-0.007 6.812007,-0.72152 z"
         id="path3699"
         inkscape:connector-curvature="0" />
      <path
         style="fill:#535353;stroke-width:0.26458332"
         d="m 72.080904,192.96243 c -1.488538,-0.35899 -2.372387,-0.88803 -3.418935,-2.04643 -3.705929,-4.10202 -0.729523,-10.73681 4.816596,-10.73681 5.564677,0 8.519273,6.62904 4.796713,10.76207 -1.537684,1.70724 -4.069977,2.5335 -6.194374,2.02117 z m 76.199996,0 c -1.48854,-0.35899 -2.37239,-0.88803 -3.41894,-2.04643 -3.70592,-4.10202 -0.72952,-10.73681 4.8166,-10.73681 5.56468,0 8.51927,6.62904 4.79671,10.76207 -1.53768,1.70724 -4.06997,2.5335 -6.19437,2.02117 z M 65.353184,177.71795 c -0.280495,-0.73095 0.385587,-5.10159 1.122678,-7.36669 1.972043,-6.06012 6.522148,-11.06398 13.049114,-14.35042 1.656784,-0.83422 3.062208,-1.64411 3.123163,-1.79976 0.09035,-0.2307 -13.830715,-52.44041 -14.757217,-55.345642 l -0.274227,-0.859896 h -5.218232 c -3.705846,0 -5.31025,-0.09202 -5.535731,-0.3175 -0.414434,-0.414434 -0.414434,-3.448482 0,-3.862917 0.462814,-0.462813 13.033184,-0.450457 13.459365,0.01323 0.167187,0.181901 0.916021,2.057135 1.664075,4.167187 l 1.360101,3.836458 42.201037,0.13229 42.20104,0.13229 0.082,0.70988 c 0.10574,0.91526 -3.5976,43.797 -3.85574,44.64643 -0.20724,0.68196 -1.76898,0.91888 -59.197098,8.98047 -4.902805,0.68824 -8.342815,1.30546 -9.528465,1.70964 -7.23701,2.46704 -12.921117,7.64187 -14.693032,13.37657 -0.394028,1.27525 -0.448775,1.77796 -0.223223,2.04974 0.249449,0.30056 7.520468,0.37115 43.989488,0.42701 l 43.69065,0.0669 0.0794,1.67674 c 0.0477,1.00844 -0.0443,1.82573 -0.23084,2.05052 -0.26504,0.31936 -7.0095,0.37378 -46.32361,0.37378 -42.92281,0 -46.024906,-0.03 -46.184676,-0.44634 z m 53.369126,-28.9375 c 19.51706,-2.74236 30.65871,-4.41435 30.83429,-4.6272 0.34447,-0.41759 4.24881,-36.89742 4.01441,-37.50824 -0.16014,-0.41733 -2.7947,-0.44739 -39.21432,-0.44739 -34.380588,0 -39.060752,0.0472 -39.194245,0.39506 -0.17353,0.45221 11.207741,45.85737 11.627394,46.38706 0.151527,0.19125 0.522462,0.29079 0.824302,0.22119 0.301839,-0.0696 14.300519,-2.05882 31.108169,-4.42048 z"
         id="path3697"
         inkscape:connector-curvature="0" />
      <path
         style="fill:#2f2f2f;stroke-width:0.26458332"
         d="m 71.33149,192.63216 c -1.503476,-0.5628 -2.552822,-1.43485 -3.342008,-2.77735 -0.621979,-1.05806 -0.728625,-1.53296 -0.728625,-3.2446 0,-1.77012 0.09385,-2.15693 0.800746,-3.3003 0.496323,-0.80279 1.293132,-1.59959 2.095917,-2.09592 1.143373,-0.70689 1.530181,-0.80074 3.300296,-0.80074 1.725944,0 2.182966,0.10453 3.282426,0.75079 4.049636,2.38034 4.053255,8.55623 0.0064,10.92784 -1.420394,0.83241 -3.95832,1.08562 -5.415158,0.54028 z m 76.2,0 c -1.50348,-0.5628 -2.55283,-1.43485 -3.34201,-2.77735 -0.62198,-1.05806 -0.72863,-1.53296 -0.72863,-3.2446 0,-1.77012 0.0939,-2.15693 0.80075,-3.3003 0.49632,-0.80279 1.29313,-1.59959 2.09592,-2.09592 1.14337,-0.70689 1.53018,-0.80074 3.30029,-0.80074 1.72595,0 2.18297,0.10453 3.28243,0.75079 4.04963,2.38034 4.05325,8.55623 0.006,10.92784 -1.42039,0.83241 -3.95832,1.08562 -5.41516,0.54028 z M 65.276482,177.28487 c 0,-1.44935 0.916173,-5.77402 1.658641,-7.82941 1.50985,-4.17973 5.086136,-8.61311 9.20338,-11.40908 0.902444,-0.61284 2.744716,-1.63718 4.09394,-2.27631 1.349224,-0.63914 2.505004,-1.30901 2.5684,-1.48861 C 82.940549,153.88567 68.12755,98.914101 67.694213,98.22022 67.413524,97.770765 66.958314,97.730959 62.09924,97.730959 h -5.289424 v -1.988842 -1.988842 l 6.803393,0.07061 6.803394,0.07061 1.369796,3.935279 c 0.753387,2.164403 1.531627,4.037806 1.729419,4.163126 0.197792,0.12533 19.260793,0.22969 42.362222,0.23191 23.10143,0.002 42.0026,0.0411 42.0026,0.0863 0,1.48408 -4.032,45.33062 -4.18229,45.48091 -0.19469,0.1947 -20.67835,3.17629 -45.95625,6.68937 -17.382775,2.41584 -19.947646,2.80668 -21.815599,3.32432 -2.038352,0.56485 -5.487826,2.19634 -7.420853,3.50982 -2.000316,1.3592 -4.770974,4.17741 -6.115227,6.22017 -1.334889,2.02854 -2.551599,5.22745 -2.268683,5.96472 0.151686,0.39529 3.752964,0.43055 43.962062,0.43055 h 43.79684 v 1.98438 1.98437 H 111.57856 65.276482 Z M 92.32569,152.63878 c 2.512673,-0.36006 15.9985,-2.26608 29.9685,-4.23559 29.84299,-4.2073 27.35062,-3.83691 27.50558,-4.08764 0.22283,-0.36055 4.12845,-37.61288 3.97025,-37.86884 -0.20145,-0.32596 -78.617426,-0.33856 -78.81884,-0.0127 -0.134257,0.21723 11.332003,46.12195 11.648395,46.63388 0.203411,0.32913 0.688263,0.29279 5.726115,-0.42914 z"
         id="path3695"
         inkscape:connector-curvature="0" />
      <path
         style="fill:#020202;stroke-width:0.26458332"
         d="m 70.536301,191.97707 c -4.024244,-2.1023 -4.244528,-8.10849 -0.384906,-10.49471 2.869758,-1.77424 6.761649,-0.95109 8.455292,1.78831 1.331841,2.1542 1.286582,4.75423 -0.119711,6.87735 -1.666194,2.51549 -5.117036,3.30936 -7.950675,1.82905 z m 76.199999,0 c -4.02425,-2.1023 -4.24453,-8.10849 -0.38491,-10.49471 2.86976,-1.77424 6.76165,-0.95109 8.45529,1.78831 1.33184,2.1542 1.28658,4.75423 -0.11971,6.87735 -1.66619,2.51549 -5.11703,3.30936 -7.95067,1.82905 z M 65.641739,175.98148 c 0.434052,-4.13109 1.682565,-7.78142 3.733358,-10.91539 2.298581,-3.51263 7.301563,-7.64183 11.348222,-9.36623 2.07854,-0.88573 2.278872,-1.02257 2.28691,-1.56212 C 83.01867,153.57197 68.173572,98.40232 67.888578,97.940281 67.730603,97.684166 66.35095,97.578252 62.376133,97.5171 l -5.301734,-0.08157 v -1.70437 -1.70437 h 6.581932 6.581932 l 1.395868,3.990621 c 1.162492,3.323419 1.502603,4.031199 2.034251,4.233339 0.377423,0.14349 17.665983,0.24271 42.293028,0.24271 h 41.65465 l -0.0104,0.59531 c -0.0329,1.89151 -3.90408,44.41774 -4.05728,44.57094 -0.10194,0.10194 -6.28288,1.04864 -13.73541,2.10379 -25.76512,3.64786 -34.4834,4.87333 -42.125069,5.92124 -4.220104,0.5787 -8.387291,1.17598 -9.260416,1.32729 -8.092726,1.40239 -15.656044,7.27008 -18.026612,13.9852 -0.726374,2.05759 -0.778494,2.81879 -0.207997,3.03771 0.230182,0.0883 19.994556,0.1606 43.920834,0.1606 h 43.50232 v 1.71979 1.71979 h -46.074 -46.07404 z m 52.423101,-26.78907 c 16.92354,-2.40109 30.96245,-4.36562 31.19757,-4.36562 0.23512,0 0.54214,-0.26789 0.68225,-0.59531 0.45109,-1.05413 4.21362,-37.59843 3.90916,-37.96857 -0.21679,-0.26358 -8.3389,-0.31785 -39.59639,-0.26459 l -39.323657,0.067 -0.08803,0.62186 c -0.09986,0.70547 11.259947,46.03034 11.664386,46.54012 0.144317,0.1819 0.379897,0.33073 0.523513,0.33073 0.143618,0 14.107658,-1.96453 31.031198,-4.36563 z"
         id="path3693"
         inkscape:connector-curvature="0" />
    </g>
  </g>
</svg>
